<?xml version="1.0" standalone="no"?>
<!DOCTYPE svg PUBLIC "-//W3C//DTD SVG 20010904//EN"
 "http://www.w3.org/TR/2001/REC-SVG-20010904/DTD/svg10.dtd">
<svg version="1.0" xmlns="http://www.w3.org/2000/svg"
 width="60.000000pt" height="60.000000pt" viewBox="0 0 600.000000 480.000000"
 preserveAspectRatio="xMidYMid meet">

<g transform="translate(0.000000,480.000000) scale(0.100000,-0.100000)"
fill="#ffffff" stroke="none">
<path d="M3027 3903 c-10 -97 -8 -193 2 -193 4 0 12 50 17 112 l9 112 70 -117
c39 -64 75 -117 81 -117 11 0 24 114 24 213 0 85 -18 49 -25 -50 -3 -54 -7
-102 -9 -107 -1 -5 -32 41 -70 103 -37 61 -73 111 -80 111 -9 0 -15 -23 -19
-67z"/>
<path d="M2785 3918 c44 -179 46 -200 15 -163 -7 9 -48 47 -92 87 -103 93
-109 87 -74 -69 15 -64 29 -120 32 -122 16 -16 14 23 -6 109 -12 56 -21 103
-18 105 2 2 48 -37 101 -87 56 -52 102 -87 107 -82 12 13 -42 244 -58 244 -8
0 -10 -8 -7 -22z"/>
<path d="M3451 3789 c-49 -56 -87 -107 -84 -112 3 -6 22 7 41 28 l35 38 56
-19 c55 -19 56 -20 59 -61 2 -23 10 -47 19 -55 15 -12 16 -9 10 27 -3 22 -9
84 -13 137 -4 59 -12 102 -19 108 -10 8 -35 -14 -104 -91z m99 0 c0 -66 3 -64
-68 -38 l-23 9 37 45 c20 25 40 45 45 45 5 0 9 -27 9 -61z"/>
<path d="M2281 3762 c-50 -25 -76 -65 -76 -117 0 -53 26 -93 79 -119 49 -24
97 -15 143 28 68 62 51 177 -32 212 -45 18 -73 18 -114 -4z m125 -29 c31 -20
48 -66 40 -107 -16 -83 -127 -116 -187 -57 -53 54 -35 146 35 177 34 15 78 10
112 -13z"/>
<path d="M1925 3481 c-16 -10 -43 -32 -59 -49 l-29 -31 94 -90 94 -90 28 32
c72 82 83 130 44 188 -40 60 -113 77 -172 40z m136 -27 c10 -9 24 -34 30 -54
9 -30 8 -42 -5 -66 -20 -37 -52 -74 -63 -74 -5 0 -41 33 -81 73 l-72 73 27 26
c16 14 37 31 48 37 27 15 92 7 116 -15z"/>
<path d="M4196 3341 c-4 -7 -5 -15 -2 -18 9 -9 19 4 14 18 -4 11 -6 11 -12 0z"/>
<path d="M4140 3330 c0 -5 5 -10 11 -10 5 0 7 5 4 10 -3 6 -8 10 -11 10 -2 0
-4 -4 -4 -10z"/>
<path d="M4283 3295 c0 -27 2 -38 4 -22 2 15 2 37 0 50 -2 12 -4 0 -4 -28z"/>
<path d="M4381 3283 c0 -4 4 -17 9 -28 8 -19 9 -19 9 2 1 12 -3 25 -9 28 -5 3
-10 3 -9 -2z"/>
<path d="M3920 3151 c0 -5 7 -12 16 -15 14 -5 15 -4 4 9 -14 17 -20 19 -20 6z"/>
<path d="M4311 3134 c0 -11 3 -14 6 -6 3 7 2 16 -1 19 -3 4 -6 -2 -5 -13z"/>
<path d="M1657 3126 c-4 -11 108 -164 159 -216 27 -27 16 16 -13 50 l-26 32
29 54 29 55 47 -3 c73 -5 62 16 -12 23 -200 19 -208 19 -213 5z m137 -22 c14
-5 13 -11 -4 -45 -11 -21 -24 -39 -28 -39 -7 0 -50 50 -66 78 -5 9 4 12 38 12
24 0 51 -3 60 -6z"/>
<path d="M4210 3136 c0 -2 8 -10 18 -17 15 -13 16 -12 3 4 -13 16 -21 21 -21
13z"/>
<path d="M4282 3060 c0 -14 2 -19 5 -12 2 6 2 18 0 25 -3 6 -5 1 -5 -13z"/>
<path d="M4340 2951 c5 -11 15 -23 21 -27 6 -3 3 5 -6 20 -20 30 -30 35 -15 7z"/>
<path d="M3940 2931 c0 -5 7 -12 16 -15 14 -5 15 -4 4 9 -14 17 -20 19 -20 6z"/>
<path d="M4370 2901 c0 -5 7 -15 17 -22 15 -13 15 -12 4 9 -12 23 -21 28 -21
13z"/>
<path d="M2680 2855 c0 -22 4 -25 35 -25 l35 0 0 -385 0 -385 -35 0 c-31 0
-35 -3 -35 -25 l0 -25 180 0 180 0 0 25 c0 23 -3 25 -50 25 l-50 0 0 124 0
123 83 6 c236 17 337 101 337 282 0 92 -19 142 -70 192 -70 68 -186 92 -442
93 l-168 0 0 -25z m377 -46 c101 -49 148 -174 112 -302 -21 -78 -111 -146
-191 -147 l-38 0 0 235 0 235 37 0 c20 0 56 -9 80 -21z"/>
<path d="M4731 2844 c0 -11 3 -14 6 -6 3 7 2 16 -1 19 -3 4 -6 -2 -5 -13z"/>
<path d="M1520 2792 c0 -11 35 -41 95 -81 52 -36 93 -66 91 -69 -3 -2 -53 -14
-112 -27 -93 -20 -123 -34 -124 -56 0 -11 241 -52 251 -42 6 6 -25 16 -83 27
-143 28 -143 30 -9 56 71 14 121 29 121 36 0 6 -43 40 -95 74 -53 35 -98 66
-100 70 -2 4 45 -3 105 -15 75 -15 110 -19 110 -11 0 10 -190 56 -232 56 -11
0 -18 -8 -18 -18z"/>
<path d="M4457 2765 c9 -19 18 -33 21 -31 4 5 -26 66 -33 66 -3 0 3 -16 12
-35z"/>
<path d="M4503 2565 c0 -38 2 -53 4 -32 2 20 2 52 0 70 -2 17 -4 1 -4 -38z"/>
<path d="M4450 2591 c0 -5 5 -13 10 -16 6 -3 10 -2 10 4 0 5 -4 13 -10 16 -5
3 -10 2 -10 -4z"/>
<path d="M4285 2580 c3 -5 8 -10 11 -10 2 0 4 5 4 10 0 6 -5 10 -11 10 -5 0
-7 -4 -4 -10z"/>
<path d="M4252 2539 c2 -6 8 -10 13 -10 5 0 11 4 13 10 2 6 -4 11 -13 11 -9 0
-15 -5 -13 -11z"/>
<path d="M4392 2539 c2 -6 8 -10 13 -10 5 0 11 4 13 10 2 6 -4 11 -13 11 -9 0
-15 -5 -13 -11z"/>
<path d="M4310 2490 c0 -5 7 -10 15 -10 8 0 15 5 15 10 0 6 -7 10 -15 10 -8 0
-15 -4 -15 -10z"/>
<path d="M4200 2460 c6 -11 16 -20 22 -20 6 0 3 9 -7 20 -10 11 -20 20 -22 20
-2 0 1 -9 7 -20z"/>
<path d="M4485 2399 c-4 -6 -5 -12 -2 -15 2 -3 7 2 10 11 7 17 1 20 -8 4z"/>
<path d="M1548 2343 c-127 -6 -91 -23 47 -23 104 0 125 2 125 15 0 12 -11 15
-47 13 -27 -1 -83 -4 -125 -5z"/>
<path d="M4460 2260 c0 -11 -6 -20 -12 -20 -9 0 -10 -3 -2 -8 6 -4 14 -14 17
-22 3 -8 6 4 6 28 1 23 -1 42 -4 42 -3 0 -5 -9 -5 -20z"/>
<path d="M1691 2139 l-33 -39 -20 25 c-26 33 -88 35 -119 4 -19 -19 -21 -29
-16 -87 4 -36 9 -67 11 -69 2 -3 31 1 63 7 148 30 194 43 186 51 -6 6 -52 0
-116 -13 -58 -12 -109 -19 -113 -16 -3 4 -8 25 -11 47 -4 31 -1 46 12 61 34
37 89 19 103 -34 l8 -28 48 57 c27 31 45 60 40 64 -5 4 -24 -9 -43 -30z"/>
<path d="M4450 2123 c0 -21 3 -24 9 -14 5 8 7 20 4 28 -8 21 -13 15 -13 -14z"/>
<path d="M4650 2129 c0 -5 5 -7 10 -4 6 3 10 8 10 11 0 2 -4 4 -10 4 -5 0 -10
-5 -10 -11z"/>
<path d="M4516 2102 c-3 -6 -1 -14 5 -17 15 -10 25 3 12 16 -7 7 -13 7 -17 1z"/>
<path d="M4117 2083 c-4 -3 -7 -13 -7 -22 1 -13 3 -13 11 2 11 19 8 33 -4 20z"/>
<path d="M4662 2078 c7 -19 38 -22 38 -4 0 10 -9 16 -21 16 -12 0 -19 -5 -17
-12z"/>
<path d="M4606 2041 c-4 -7 -5 -15 -2 -18 9 -9 19 4 14 18 -4 11 -6 11 -12 0z"/>
<path d="M4121 1964 c0 -11 3 -14 6 -6 3 7 2 16 -1 19 -3 4 -6 -2 -5 -13z"/>
<path d="M4594 1858 l-19 -23 23 19 c12 11 22 21 22 23 0 8 -8 2 -26 -19z"/>
<path d="M1636 1799 c-19 -15 -26 -30 -26 -55 0 -33 33 -114 47 -114 15 0 223
104 223 112 0 13 -18 10 -60 -12 l-40 -20 -20 39 c-21 42 -54 71 -81 71 -9 0
-28 -9 -43 -21z m102 -57 l24 -42 -47 -20 c-26 -11 -50 -20 -54 -20 -9 0 -31
61 -31 86 0 29 21 45 55 42 23 -2 35 -12 53 -46z"/>
<path d="M3820 1716 c-6 -8 -10 -25 -8 -36 2 -17 5 -14 14 14 12 40 12 42 -6
22z"/>
<path d="M3942 1685 c0 -16 2 -22 5 -12 2 9 2 23 0 30 -3 6 -5 -1 -5 -18z"/>
<path d="M4213 1630 c0 -30 2 -43 4 -27 2 15 2 39 0 55 -2 15 -4 2 -4 -28z"/>
<path d="M4270 1640 c-9 -6 -10 -10 -3 -10 6 0 15 5 18 10 8 12 4 12 -15 0z"/>
<path d="M4494 1634 c-18 -14 -18 -14 6 -3 31 14 36 19 24 19 -6 0 -19 -7 -30
-16z"/>
<path d="M3802 1600 c0 -19 2 -27 5 -17 2 9 2 25 0 35 -3 9 -5 1 -5 -18z"/>
<path d="M4096 1565 c4 -8 10 -12 15 -9 14 8 10 24 -6 24 -9 0 -12 -6 -9 -15z"/>
<path d="M3811 1524 c0 -11 3 -14 6 -6 3 7 2 16 -1 19 -3 4 -6 -2 -5 -13z"/>
<path d="M3821 1474 c0 -11 3 -14 6 -6 3 7 2 16 -1 19 -3 4 -6 -2 -5 -13z"/>
<path d="M4052 1478 c6 -18 28 -21 28 -4 0 9 -7 16 -16 16 -9 0 -14 -5 -12
-12z"/>
<path d="M4011 1434 c0 -11 3 -14 6 -6 3 7 2 16 -1 19 -3 4 -6 -2 -5 -13z"/>
<path d="M2447 1424 c-3 -3 -3 -12 0 -20 4 -11 9 -12 19 -3 8 6 11 15 8 20 -6
10 -18 12 -27 3z"/>
<path d="M4329 1403 l-24 -28 28 24 c15 14 27 26 27 28 0 8 -8 1 -31 -24z"/>
<path d="M2360 1380 c0 -5 7 -10 15 -10 8 0 15 5 15 10 0 6 -7 10 -15 10 -8 0
-15 -4 -15 -10z"/>
<path d="M3821 1374 c0 -11 3 -14 6 -6 3 7 2 16 -1 19 -3 4 -6 -2 -5 -13z"/>
<path d="M2480 1360 c0 -5 5 -10 10 -10 6 0 10 5 10 10 0 6 -4 10 -10 10 -5 0
-10 -4 -10 -10z"/>
<path d="M2950 1330 c-11 -8 -7 -9 15 -4 37 8 45 14 19 14 -10 0 -26 -5 -34
-10z"/>
<path d="M3432 1293 c5 -25 28 -28 28 -4 0 12 -6 21 -16 21 -9 0 -14 -7 -12
-17z"/>
<path d="M3496 1291 c-4 -5 -2 -12 3 -15 5 -4 12 -2 15 3 4 5 2 12 -3 15 -5 4
-12 2 -15 -3z"/>
<path d="M2370 1270 c0 -5 5 -10 10 -10 6 0 10 5 10 10 0 6 -4 10 -10 10 -5 0
-10 -4 -10 -10z"/>
<path d="M2240 1266 c0 -2 8 -10 18 -17 15 -13 16 -12 3 4 -13 16 -21 21 -21
13z"/>
<path d="M3340 1240 c-18 -12 -2 -12 25 0 13 6 15 9 5 9 -8 0 -22 -4 -30 -9z"/>
<path d="M2320 1217 c0 -3 12 -12 26 -22 15 -9 23 -12 20 -6 -7 11 -46 35 -46
28z"/>
<path d="M3417 1214 c-8 -8 1 -24 14 -24 5 0 9 7 9 15 0 15 -12 20 -23 9z"/>
<path d="M2385 1170 c4 -6 11 -8 16 -5 14 9 11 15 -7 15 -8 0 -12 -5 -9 -10z"/>
<path d="M2410 1156 c0 -2 8 -10 18 -17 15 -13 16 -12 3 4 -13 16 -21 21 -21
13z"/>
<path d="M3520 1144 c0 -8 5 -12 10 -9 6 4 8 11 5 16 -9 14 -15 11 -15 -7z"/>
<path d="M3570 1100 c-8 -5 -10 -10 -5 -10 6 0 17 5 25 10 8 5 11 10 5 10 -5
0 -17 -5 -25 -10z"/>
<path d="M2470 1097 c0 -2 15 -14 33 -27 20 -15 27 -17 18 -6 -13 16 -51 41
-51 33z"/>
<path d="M3490 1060 c-9 -6 -10 -10 -3 -10 6 0 15 5 18 10 8 12 4 12 -15 0z"/>
<path d="M2605 990 c10 -11 20 -20 23 -20 3 0 -3 9 -13 20 -10 11 -20 20 -23
20 -3 0 3 -9 13 -20z"/>
<path d="M2710 1000 c-9 -6 -10 -10 -3 -10 6 0 15 5 18 10 8 12 4 12 -15 0z"/>
<path d="M3475 990 c-3 -5 1 -10 10 -10 9 0 13 5 10 10 -3 6 -8 10 -10 10 -2
0 -7 -4 -10 -10z"/>
<path d="M4028 953 c7 -3 16 -2 19 1 4 3 -2 6 -13 5 -11 0 -14 -3 -6 -6z"/>
<path d="M3943 933 c9 -2 23 -2 30 0 6 3 -1 5 -18 5 -16 0 -22 -2 -12 -5z"/>
<path d="M2788 923 c7 -3 16 -2 19 1 4 3 -2 6 -13 5 -11 0 -14 -3 -6 -6z"/>
<path d="M3150 920 c0 -5 5 -10 11 -10 5 0 7 5 4 10 -3 6 -8 10 -11 10 -2 0
-4 -4 -4 -10z"/>
<path d="M3585 900 c-3 -5 1 -10 10 -10 9 0 13 5 10 10 -3 6 -8 10 -10 10 -2
0 -7 -4 -10 -10z"/>
<path d="M3470 876 c0 -9 7 -16 16 -16 17 0 14 22 -4 28 -7 2 -12 -3 -12 -12z"/>
<path d="M3552 844 c4 -21 22 -23 26 -1 2 10 -3 17 -13 17 -10 0 -15 -6 -13
-16z"/>
<path d="M2396 797 c3 -10 9 -15 12 -12 3 3 0 11 -7 18 -10 9 -11 8 -5 -6z"/>
<path d="M3280 720 c20 -13 33 -13 25 0 -3 6 -14 10 -23 10 -15 0 -15 -2 -2
-10z"/>
<path d="M2755 660 c10 -11 23 -20 28 -20 6 0 2 9 -8 20 -10 11 -23 20 -28 20
-6 0 -2 -9 8 -20z"/>
</g>
</svg>
